<svg xmlns="http://www.w3.org/2000/svg" viewBox="0 0 64 64" width="64" height="64" role="img" aria-label="Shelf fragrance collection">
  <defs>
    <linearGradient id="bg" x1="8" y1="4" x2="56" y2="60" gradientUnits="userSpaceOnUse">
      <stop stop-color="#33251a"/>
      <stop offset="0.54" stop-color="#19150f"/>
      <stop offset="1" stop-color="#090806"/>
    </linearGradient>
    <linearGradient id="glass" x1="23" y1="17" x2="43" y2="58" gradientUnits="userSpaceOnUse">
      <stop stop-color="#fff7df"/>
      <stop offset="0.45" stop-color="#e6c170"/>
      <stop offset="1" stop-color="#9d6426"/>
    </linearGradient>
    <linearGradient id="liquid" x1="24" y1="32" x2="42" y2="50" gradientUnits="userSpaceOnUse">
      <stop stop-color="#f5a36e"/>
      <stop offset="1" stop-color="#9f3f2d"/>
    </linearGradient>
  </defs>
  <rect width="64" height="64" rx="15" fill="url(#bg)"/>
  <path d="M15 48c8.8 5.8 25 6.3 34.5.8" fill="none" stroke="#f2d08a" stroke-opacity=".18" stroke-width="1.5" stroke-linecap="round"/>
  <path d="M28 8.5h8v5.2h-8z" fill="#f7dfaa"/>
  <path d="M25.5 13h13a2 2 0 0 1 2 2v2.5h-17V15a2 2 0 0 1 2-2Z" fill="#c7863d"/>
  <path d="M24 20.5h16l4.2 6.7v22.3a6 6 0 0 1-6 6H25.8a6 6 0 0 1-6-6V27.2z" fill="url(#glass)"/>
  <path d="M24.1 34.4c5.1 2.5 10.4-2.5 15.8 0v14.7a2.8 2.8 0 0 1-2.8 2.8H26.9a2.8 2.8 0 0 1-2.8-2.8z" fill="url(#liquid)"/>
  <path d="M25.7 24.4h12.6l2.3 3.7v20.1a3.9 3.9 0 0 1-3.9 3.9h-9.4a3.9 3.9 0 0 1-3.9-3.9V28.1z" fill="none" stroke="#fff4cd" stroke-opacity=".54" stroke-width="2"/>
  <path d="M29.7 31.1h4.6l-1.8 13.8h-1z" fill="#24160f"/>
  <path d="M28.1 31.1h7.8l-3.3 7.7h-1.2z" fill="#24160f"/>
  <path d="M27.8 16.3h8.4" stroke="#fff0c4" stroke-opacity=".75" stroke-width="1.5" stroke-linecap="round"/>
  <path d="M27.1 25.3h3.2" stroke="#fff8dc" stroke-opacity=".65" stroke-width="2" stroke-linecap="round"/>
</svg>
