<svg xmlns="http://www.w3.org/2000/svg" width="1200" height="630" viewBox="0 0 1200 630" role="img" aria-label="Shelf fragrance collection preview">
  <rect width="1200" height="630" fill="#16120c"/>
  <g opacity="0.22">
    <rect x="0" y="0" width="134" height="630" fill="#41c7c7"/>
    <rect x="134" y="0" width="133" height="630" fill="#e8b650"/>
    <rect x="267" y="0" width="133" height="630" fill="#8ecf5f"/>
    <rect x="400" y="0" width="134" height="630" fill="#d66a7a"/>
    <rect x="534" y="0" width="133" height="630" fill="#a98cf0"/>
    <rect x="667" y="0" width="133" height="630" fill="#f08a4b"/>
    <rect x="800" y="0" width="134" height="630" fill="#dfc16f"/>
    <rect x="934" y="0" width="133" height="630" fill="#73a8f5"/>
    <rect x="1067" y="0" width="133" height="630" fill="#d895c7"/>
  </g>
  <rect x="12" y="12" width="1176" height="606" fill="none" stroke="#f6f2e9" stroke-opacity="0.16"/>

  <g transform="translate(72 64)">
    <rect x="0" y="0" width="34" height="34" fill="#f6f2e9" fill-opacity="0.08" stroke="#f6f2e9" stroke-opacity="0.56"/>
    <text x="48" y="27" fill="#d9cfc0" font-family="Arial, Helvetica, sans-serif" font-size="28">A personal fragrance collection</text>
  </g>
  <text x="1128" y="91" fill="#b7a995" font-family="Arial, Helvetica, sans-serif" font-size="24" text-anchor="end">shelf.faizanmalik.com</text>

  <text x="72" y="342" fill="#f6f2e9" font-family="Arial, Helvetica, sans-serif" font-size="136" font-weight="700">Shelf</text>
  <text x="72" y="408" fill="#e2d7c8" font-family="Arial, Helvetica, sans-serif" font-size="36">A searchable archive of 313 fragrances, with notes,</text>
  <text x="72" y="453" fill="#e2d7c8" font-family="Arial, Helvetica, sans-serif" font-size="36">families, seasons, occasions and layering.</text>

  <g transform="translate(72 513)" font-family="Arial, Helvetica, sans-serif">
    <g>
      <rect width="150" height="80" fill="#16120c" fill-opacity="0.74" stroke="#f6f2e9" stroke-opacity="0.16"/>
      <text x="22" y="43" fill="#f6f2e9" font-size="40" font-weight="700">313</text>
      <text x="22" y="68" fill="#b7a995" font-size="22">fragrances</text>
    </g>
    <g transform="translate(166 0)">
      <rect width="150" height="80" fill="#16120c" fill-opacity="0.74" stroke="#f6f2e9" stroke-opacity="0.16"/>
      <text x="22" y="43" fill="#f6f2e9" font-size="40" font-weight="700">27</text>
      <text x="22" y="68" fill="#b7a995" font-size="22">houses</text>
    </g>
    <g transform="translate(332 0)">
      <rect width="150" height="80" fill="#16120c" fill-opacity="0.74" stroke="#f6f2e9" stroke-opacity="0.16"/>
      <text x="22" y="43" fill="#f6f2e9" font-size="40" font-weight="700">9</text>
      <text x="22" y="68" fill="#b7a995" font-size="22">families</text>
    </g>
  </g>

  <g transform="translate(846 566)">
    <rect width="22" height="22" fill="#41c7c7"/>
    <rect x="32" width="22" height="22" fill="#e8b650"/>
    <rect x="64" width="22" height="22" fill="#8ecf5f"/>
    <rect x="96" width="22" height="22" fill="#d66a7a"/>
    <rect x="128" width="22" height="22" fill="#a98cf0"/>
    <rect x="160" width="22" height="22" fill="#f08a4b"/>
    <rect x="192" width="22" height="22" fill="#dfc16f"/>
    <rect x="224" width="22" height="22" fill="#73a8f5"/>
    <rect x="256" width="22" height="22" fill="#d895c7"/>
  </g>
</svg>
